<svg xmlns="http://www.w3.org/2000/svg" xmlns:xlink="http://www.w3.org/1999/xlink" width="1200" height="1000" viewBox="0 0 1200 1000"><rect x="0" y="0" width="1200" height="1000" fill="#f2efe4" /><text x="74" y="74" font-size="15" font-family="Arial" fill="#151515" letter-spacing="2" font-weight="700">TABLE / 01</text><text x="765" y="74" font-size="15" font-family="Arial" fill="#151515" letter-spacing="2" font-weight="700">MENU STUDY</text><text x="74" y="196" font-size="98" font-family="Georgia" fill="#253a30" >Dinner,</text><text x="74" y="294" font-size="98" font-family="Georgia" fill="#253a30" font-style="italic">considered.</text><line x1="74" y1="345" x2="1126" y2="345" stroke="#253a30" stroke-width="1"/><text x="74" y="408" font-size="15" font-family="Arial" fill="#253a30" letter-spacing="2" font-weight="700">TO BEGIN</text><text x="74" y="450" font-size="24" font-family="Georgia" fill="#253a30" >Tomato &amp; basil</text><text x="74" y="474" font-size="13" font-family="Arial" fill="#616a60" >Roasted tomatoes, basil oil, toasted sourdough</text><text x="725" y="450" font-size="20" font-family="Arial" fill="#253a30" text-anchor="end">28</text><text x="74" y="513" font-size="24" font-family="Georgia" fill="#253a30" >Burrata</text><text x="74" y="537" font-size="13" font-family="Arial" fill="#616a60" >Seasonal tomatoes, olive oil, fresh herbs</text><text x="725" y="513" font-size="20" font-family="Arial" fill="#253a30" text-anchor="end">42</text><text x="74" y="585" font-size="15" font-family="Arial" fill="#253a30" letter-spacing="2" font-weight="700">FROM THE KITCHEN</text><text x="74" y="627" font-size="24" font-family="Georgia" fill="#253a30" >Wild mushroom risotto</text><text x="74" y="651" font-size="13" font-family="Arial" fill="#616a60" >Arborio rice, parmesan, thyme</text><text x="725" y="627" font-size="20" font-family="Arial" fill="#253a30" text-anchor="end">64</text><text x="74" y="690" font-size="24" font-family="Georgia" fill="#253a30" >Roasted sea bass</text><text x="74" y="714" font-size="13" font-family="Arial" fill="#616a60" >Lemon butter, seasonal greens</text><text x="725" y="690" font-size="20" font-family="Arial" fill="#253a30" text-anchor="end">88</text><text x="74" y="762" font-size="15" font-family="Arial" fill="#253a30" letter-spacing="2" font-weight="700">SOMETHING SWEET</text><text x="74" y="804" font-size="24" font-family="Georgia" fill="#253a30" >Dark chocolate tart</text><text x="74" y="828" font-size="13" font-family="Arial" fill="#616a60" >Sea salt, vanilla cream</text><text x="725" y="804" font-size="20" font-family="Arial" fill="#253a30" text-anchor="end">32</text><text x="74" y="867" font-size="24" font-family="Georgia" fill="#253a30" >Vanilla panna cotta</text><text x="74" y="891" font-size="13" font-family="Arial" fill="#616a60" >Seasonal berries, almond crumble</text><text x="725" y="867" font-size="20" font-family="Arial" fill="#253a30" text-anchor="end">30</text><line x1="795" y1="389" x2="795" y2="882" stroke="#c2c6b6" stroke-width="1"/><path d="M952 755 V448 M952 672 Q850 624 880 564 Q950 574 952 672 M952 603 Q1056 554 1031 494 Q955 511 952 603 M952 755 Q1044 724 1047 662 Q969 654 952 755" fill="none" stroke="#526c4f" stroke-width="4"/><line x1="74" y1="924" x2="1126" y2="924" stroke="#253a30" stroke-width="1"/><text x="74" y="960" font-size="15" font-family="Arial" fill="#253a30" letter-spacing="2" font-weight="700">EDITORIAL MENU CONCEPT / PRICES IN AED</text></svg>